<?xml version="1.0" encoding="UTF-8"?>
<svg version="1.1" xmlns="http://www.w3.org/2000/svg" width="510" height="579">
<path d="M0 0 C168.3 0 336.6 0 510 0 C510 191.07 510 382.14 510 579 C341.7 579 173.4 579 0 579 C0 387.93 0 196.86 0 0 Z " fill="#000000" transform="translate(0,0)"/>
<path d="M0 0 C168.3 0 336.6 0 510 0 C510 191.07 510 382.14 510 579 C341.7 579 173.4 579 0 579 C0 387.93 0 196.86 0 0 Z M83 46 C78.50079291 51.86381196 76.04430523 58.52458039 73.625 65.4375 C73.04745972 67.07090332 73.04745972 67.07090332 72.45825195 68.73730469 C67.21210628 83.83908933 62.76198172 99.17841641 59.6875 114.875 C59.46646606 115.99406738 59.46646606 115.99406738 59.2409668 117.13574219 C56.38962452 132.83065259 55.68530043 148.58504518 55.69921875 164.5 C55.69531648 166.39705496 55.69097877 168.29410907 55.68623352 170.19116211 C55.67885097 174.12730778 55.67900694 178.06336358 55.68432617 181.99951172 C55.69015649 187.01675349 55.67306559 192.03363035 55.6499815 197.05081177 C55.63519479 200.95267851 55.63437838 204.85445785 55.63749123 208.75634766 C55.63698202 210.60612723 55.6318206 212.45591222 55.62167931 214.30566406 C55.50319045 227.26177406 55.50319045 227.26177406 58.36224365 239.83726501 C60.57756573 247.34978069 56.72946876 255.0757184 53.9375 261.9375 C53.19389249 263.79969658 52.45286947 265.66292796 51.71484375 267.52734375 C51.38605225 268.33937256 51.05726074 269.15140137 50.71850586 269.98803711 C49.88789511 271.95784831 49.88789511 271.95784831 50 274 C49.26136719 274.10570312 48.52273437 274.21140625 47.76171875 274.3203125 C37.89911523 276.74760106 29.83822743 288.00884493 23.9453125 295.671875 C22.12310728 297.85266679 20.53915685 299.09023448 18.1875 300.625 C16.08507397 302.43368048 15.07674956 303.34851774 14.74707031 306.14697266 C15.68689171 314.95566232 18.06439839 323.28508145 20.5625 331.75 C20.89954956 332.90518631 20.89954956 332.90518631 21.2434082 334.08370972 C26.85025218 353.28923874 32.35788651 371.84022007 42.8125 389.04541016 C43.9184398 390.86575433 44.99433919 392.70028704 46.0625 394.54296875 C54.29330557 408.43245314 64.46329359 421.77612881 76.875 432.17578125 C78.39530564 433.48089657 79.87035035 434.83947644 81.3125 436.23046875 C116.81210546 470.2689624 172.81061844 492.4126734 221 498 C221.8348291 498.10006348 222.6696582 498.20012695 223.52978516 498.30322266 C247.96068101 501.13262606 271.64778674 499.87113013 296 497 C296.87076172 496.89848633 297.74152344 496.79697266 298.63867188 496.69238281 C332.66516501 492.48702698 364.49475052 480.07657047 394 463 C394.70141113 462.59475098 395.40282227 462.18950195 396.12548828 461.77197266 C434.17038594 439.57005032 470.07374642 402.72374976 482.28515625 359.47851562 C483.22254939 356.22837384 484.22267081 352.99811883 485.21875 349.765625 C486.04368065 347.07353003 486.86592557 344.38062088 487.6875 341.6875 C487.985923 340.71198685 487.985923 340.71198685 488.29037476 339.71676636 C492.71719313 325.42709626 492.71719313 325.42709626 494.375 310.625 C494.40335937 309.64789063 494.43171875 308.67078125 494.4609375 307.6640625 C494.15912817 304.9281065 494.15912817 304.9281065 492.5390625 302.6484375 C489.61671135 300.75115722 488.92243622 300.94809024 485.58984375 301.25390625 C481.47977037 301.42960789 481.47977037 301.42960789 479.40283203 299.56982422 C477.95300754 297.42183799 476.74510618 295.24347751 475.5625 292.9375 C474.63575281 291.27960297 473.70601031 289.62337711 472.7734375 287.96875 C472.31420898 287.1334375 471.85498047 286.298125 471.38183594 285.4375 C469.32774001 281.81416188 467.02781622 278.38013585 464.6875 274.9375 C464.07007935 274.00321167 464.07007935 274.00321167 463.44018555 273.05004883 C461.74036136 270.48770974 460.02067069 268.02463154 458.04296875 265.66796875 C454.00156123 260.71795439 453.45511833 256.47427483 453.375 250.25 C453.35832275 249.14906006 453.35832275 249.14906006 453.34130859 248.02587891 C453.47509905 243.02531783 454.63478831 240.6120805 458 237 C459.16154532 233.51536403 459.21189438 230.654002 459.31640625 226.9765625 C459.34778183 225.90115959 459.34778183 225.90115959 459.37979126 224.80403137 C459.44684881 222.41113975 459.50556295 220.01815291 459.5625 217.625 C459.58301422 216.79831818 459.60352844 215.97163635 459.62466431 215.11990356 C459.94677964 201.85650782 460.12901053 188.59185645 460.17623901 175.324646 C460.18361562 173.43339487 460.1941776 171.54215286 460.20828247 169.65093994 C460.32516716 152.43403692 459.29358617 135.33690342 456.1875 118.375 C456.01210693 117.41158691 455.83671387 116.44817383 455.65600586 115.45556641 C452.63558451 99.35463251 447.80542724 84.1429257 442.4375 68.6875 C442.15214386 67.8597406 441.86678772 67.0319812 441.57278442 66.17913818 C440.74454053 63.78642041 439.90374622 61.39850975 439.05859375 59.01171875 C438.81072113 58.29365555 438.56284851 57.57559235 438.3074646 56.83576965 C436.41023324 51.55054683 434.02195823 47.02195823 430 43 C422.92840365 41.84968699 417.89921073 45.23115337 411.875 48.625 C410.82546143 49.20531982 409.77592285 49.78563965 408.69458008 50.38354492 C398.07612 56.34978868 387.96784038 63.01165254 378 70 C377.40348633 70.41652832 376.80697266 70.83305664 376.19238281 71.26220703 C369.57778544 75.90541887 363.26818277 80.90344018 357 86 C355.75863281 86.97839844 355.75863281 86.97839844 354.4921875 87.9765625 C340.84961556 98.84989595 325.74376068 111.38435897 316 126 C309.37303083 125.6759155 303.02845804 125.08299845 296.5625 123.5625 C288.66804204 121.87437691 280.7275833 121.33022204 272.6875 120.8125 C271.39980713 120.7287915 270.11211426 120.64508301 268.78540039 120.55883789 C265.19097629 120.34280503 261.59738014 120.15870406 258 120 C257.17121338 119.96124756 256.34242676 119.92249512 255.48852539 119.88256836 C246.97420042 119.67973806 238.50221078 120.94343444 230.0625 121.9375 C228.4668602 122.12229245 226.8711573 122.30654078 225.27539062 122.49023438 C224.49754211 122.58000549 223.7196936 122.66977661 222.91827393 122.76226807 C221.38388058 122.93753622 219.849172 123.11006853 218.31414795 123.27972412 C215.06112551 123.6396349 211.82980123 124.02570787 208.59277344 124.51464844 C201.70047273 125.46761804 201.70047273 125.46761804 198.1328125 123.0859375 C197.47023437 122.19132812 196.80765625 121.29671875 196.125 120.375 C195.10792969 119.05628906 195.10792969 119.05628906 194.0703125 117.7109375 C193.38710937 116.81632812 192.70390625 115.92171875 192 115 C165.73689342 87.56964424 133.85544331 63.44408944 100 46.1875 C99.36022217 45.85613037 98.72044434 45.52476074 98.0612793 45.18334961 C92.23798737 42.3207609 88.19139878 41.84688097 83 46 Z " fill="#FEFEFE" transform="translate(0,0)"/>
<path d="M0 0 C17.29916701 11.84443362 26.30254076 28.95408621 30.69140625 49.1875 C32.18330288 57.70070034 32 65.1263794 32 74 C43.88 74 55.76 74 68 74 C68 68.39 68 62.78 68 57 C70.38891679 35.49974892 78.15906574 18.14568805 94.51953125 3.7890625 C108.50929882 -7.15945125 125.3406941 -12.55996892 143 -11 C156.03910209 -9.05567633 168.90067801 -4.59606861 179 4 C179.66644531 4.52335938 180.33289063 5.04671875 181.01953125 5.5859375 C195.26736239 17.19124546 203.09236733 36.03491564 205 54 C205.13447369 57.77204047 205.13986833 61.53842307 205.125 65.3125 C205.12886719 66.31345703 205.13273437 67.31441406 205.13671875 68.34570312 C205.13478516 69.7775293 205.13478516 69.7775293 205.1328125 71.23828125 C205.13168457 72.10493408 205.13055664 72.97158691 205.12939453 73.86450195 C205 76 205 76 204 78 C204.55236328 77.98952637 205.10472656 77.97905273 205.67382812 77.96826172 C237.33417264 77.4502072 237.33417264 77.4502072 245 82 C244.67 83.65 244.34 85.3 244 87 C243.34 87 242.68 87 242 87 C241.6596875 87.7734375 241.6596875 87.7734375 241.3125 88.5625 C239.8432754 91.29105996 238.09259884 93.65881067 236.21875 96.12109375 C234.79572112 98.31492994 233.90652091 100.55323291 233 103 C233.71285156 102.97679687 234.42570312 102.95359375 235.16015625 102.9296875 C240.84898155 102.82249564 245.67230682 102.91525049 251 105 C251.33 105.66 251.66 106.32 252 107 C249.93577368 112.56100314 246.65209856 117.53198752 243.375 122.4375 C238.49364494 130.17555717 235.32790883 138.58146554 232.03271484 147.09155273 C226.01092074 162.51308493 217.84948736 174.11809877 206.6484375 186.10546875 C204.81999291 188.10381306 203.07638928 190.09326107 201.36328125 192.18359375 C198.74881551 195.29934549 196.23263337 197.5575659 193 200 C192.34 200 191.68 200 191 200 C191 200.66 191 201.32 191 202 C187.43731101 204.79925563 183.628563 207.25621119 179.85546875 209.76220703 C178.12182681 210.91872869 176.40392806 212.09549865 174.6875 213.27734375 C159.01613398 223.7926825 142.0232091 230.60665771 124 236 C123.23260498 236.24113525 122.46520996 236.48227051 121.67456055 236.73071289 C70.90139429 251.78889525 15.98594727 249.31416468 -34 233 C-34.85287598 232.72575195 -35.70575195 232.45150391 -36.58447266 232.16894531 C-75.65852213 219.38107458 -112.10357565 192.99703476 -131.0390625 155.9140625 C-131.69453503 154.61029177 -132.34817559 153.30559844 -133 152 C-133.32323242 151.35514648 -133.64646484 150.71029297 -133.97949219 150.04589844 C-135.29816434 147.41249046 -136.61351272 144.7774677 -137.92333984 142.13964844 C-140.4504875 137.06063774 -143.04494615 132.01991309 -145.6875 127 C-146.04384521 126.31824707 -146.40019043 125.63649414 -146.76733398 124.93408203 C-148.97271205 120.76785847 -151.35528625 116.78933631 -153.96020508 112.859375 C-155.04753504 110.91499722 -155.56056539 109.17521634 -156 107 C-153.22226858 105.14817905 -152.11616555 104.6658319 -148.98828125 104.1484375 C-147.85229492 103.95507812 -147.85229492 103.95507812 -146.69335938 103.7578125 C-145.90767578 103.63148438 -145.12199219 103.50515625 -144.3125 103.375 C-143.11657227 103.17390625 -143.11657227 103.17390625 -141.89648438 102.96875 C-139.9320598 102.6393854 -137.96616073 102.31883687 -136 102 C-137.24968542 97.4829079 -138.76037269 94.74564165 -142 91.375 C-144.53271824 88.72123273 -146.65835675 86.44787888 -148 83 C-147.625 80.75 -147.625 80.75 -147 79 C-141.64513638 78.15149298 -136.35080106 77.70508181 -130.9375 77.4375 C-130.11056641 77.3957666 -129.28363281 77.3540332 -128.43164062 77.31103516 C-108.84594582 76.38468473 -108.84594582 76.38468473 -104 78 C-104.24230347 77.14112183 -104.24230347 77.14112183 -104.48950195 76.26489258 C-107.91305224 61.07585575 -105.25745576 41.4720513 -98 28 C-97.47986328 26.88431641 -97.47986328 26.88431641 -96.94921875 25.74609375 C-88.04176112 7.6396617 -70.38427377 -3.57041976 -52 -10 C-34.3540201 -15.11436198 -15.08298067 -9.31916765 0 0 Z " fill="#FDFDFD" transform="translate(208,224)"/>
<path d="M0 0 C0.82728104 -0.00570007 1.65456207 -0.01140015 2.50691223 -0.01727295 C4.25077048 -0.02667397 5.9946461 -0.03323731 7.73852539 -0.03710938 C10.36962891 -0.04678344 12.99993964 -0.07784042 15.63085938 -0.109375 C38.00493654 -0.25066127 38.00493654 -0.25066127 45.70703125 5.390625 C52.19744947 12.6923455 53.59018371 20.43800207 53.484375 30.0078125 C52.58828896 40.33173334 47.34510321 48.53720056 39.89453125 55.453125 C34.46533372 59.82267652 28.86639607 62.22586704 21.9140625 62.80859375 C21.02823486 62.8861792 20.14240723 62.96376465 19.22973633 63.04370117 C18.56224365 63.09631104 17.89475098 63.1489209 17.20703125 63.203125 C17.20072751 66.89216079 17.26063068 70.57733931 17.33203125 74.265625 C17.32945312 75.30396484 17.326875 76.34230469 17.32421875 77.41210938 C17.48098475 83.5847707 18.08483535 87.51943019 22.59204102 91.93286133 C28.10493567 96.26900508 34.5190006 95.84765361 41.20703125 95.203125 C50.41728169 93.18202439 57.55996583 87.170812 63.0625 79.67578125 C66.14127958 74.742132 68.41642043 69.72014213 70.20703125 64.203125 C70.55894531 63.15898437 70.91085937 62.11484375 71.2734375 61.0390625 C72.2621016 58.09718395 73.23888099 55.15180598 74.20703125 52.203125 C75.8093008 51.98067107 77.41399892 51.77565831 79.01953125 51.578125 C79.91285156 51.46210938 80.80617188 51.34609375 81.7265625 51.2265625 C84.20703125 51.203125 84.20703125 51.203125 87.20703125 53.203125 C88.79550684 64.91813246 82.83544296 78.7601011 76.20703125 88.203125 C66.50566354 99.82239077 54.2419393 108.62722938 38.9453125 110.4765625 C30.11909266 110.8885584 21.19112698 108.61579919 14.20703125 103.203125 C12.8844073 102.51545639 11.55267264 101.84458541 10.20703125 101.203125 C9.74554688 101.60144531 9.2840625 101.99976563 8.80859375 102.41015625 C0.27554517 109.34115026 -8.00755266 110.86640913 -18.9140625 110.61328125 C-29.70722392 109.47201041 -38.39565629 104.83088886 -46.79296875 98.203125 C-47.67984375 97.605 -48.56671875 97.006875 -49.48046875 96.390625 C-59.32195406 87.08111187 -65.09057932 73.82863312 -65.9765625 60.42578125 C-66.0961731 55.52174652 -66.0961731 55.52174652 -65.79296875 53.203125 C-63.79296875 51.203125 -63.79296875 51.203125 -61.0078125 50.97265625 C-59.92628906 50.98683594 -58.84476563 51.00101562 -57.73046875 51.015625 C-56.10431641 51.02529297 -56.10431641 51.02529297 -54.4453125 51.03515625 C-51.79296875 51.203125 -51.79296875 51.203125 -50.79296875 52.203125 C-50.63584693 53.89112288 -50.48278674 55.57960501 -50.35107422 57.26977539 C-49.40226354 68.25953316 -46.27688908 78.45722939 -37.98046875 86.265625 C-28.8527884 93.28008753 -19.27887382 96.40609641 -7.79296875 95.203125 C-3.3605477 93.63347865 0.22459337 90.806704 3.20703125 87.203125 C3.6647809 84.59611049 3.6647809 84.59611049 3.37890625 81.78125 C3.32089844 80.75644531 3.26289063 79.73164063 3.203125 78.67578125 C3.12191406 77.61230469 3.04070312 76.54882812 2.95703125 75.453125 C2.89128906 74.37417969 2.82554687 73.29523438 2.7578125 72.18359375 C2.59291327 69.52164911 2.40867179 66.86249736 2.20703125 64.203125 C1.30082031 64.05617188 0.39460938 63.90921875 -0.5390625 63.7578125 C-12.67836832 61.52263873 -20.49110743 57.24318432 -27.79296875 47.203125 C-32.96629839 39.18446406 -34.55394683 30.22209587 -33.38671875 20.8046875 C-31.6151472 13.04240691 -26.03258023 7.79289885 -19.79296875 3.203125 C-13.9848138 -0.43481223 -6.63874571 0.03620393 0 0 Z " fill="#000000" transform="translate(247.79296875,315.796875)"/>
<path d="M0 0 C3.19334972 1.25723078 6.2041641 2.58004498 9.203125 4.25 C28.92839578 15.03246154 49.36553602 22.98766047 71 29 C73.92252737 29.82896219 76.84374978 30.6623887 79.76464844 31.49707031 C81.63405869 32.03000222 83.50446665 32.55944999 85.37597656 33.08496094 C86.21354492 33.32118164 87.05111328 33.55740234 87.9140625 33.80078125 C88.6560791 34.00872314 89.3980957 34.21666504 90.16259766 34.4309082 C92 35 92 35 94 36 C94 51.84 94 67.68 94 84 C71.08004373 84.04010881 71.08004373 84.04010881 61.34570312 84.04882812 C54.69115405 84.05481692 48.03661867 84.06191818 41.38208008 84.07543945 C36.01992581 84.08626715 30.65778622 84.09227658 25.29562187 84.09487724 C23.24499722 84.09673171 21.1943734 84.10035272 19.14375496 84.10573006 C16.28209797 84.11293893 13.42050243 84.11399101 10.55883789 84.11352539 C9.70216522 84.11712067 8.84549255 84.12071594 7.96286011 84.12442017 C2.11405216 84.11405216 2.11405216 84.11405216 1 83 C0.74348107 80.67080014 0.56781184 78.37718227 0.44140625 76.0390625 C0.39915421 75.26204987 0.35690216 74.48503723 0.31336975 73.68447876 C-0.30929557 60.34969528 -0.10905555 46.97864084 -0.06866455 33.63250732 C-0.05828254 29.83053145 -0.05383563 26.02854858 -0.04882812 22.2265625 C-0.03822609 14.81768969 -0.02124633 7.40885077 0 0 Z " fill="#000000" transform="translate(110,476)"/>
<path d="M0 0 C0.99 0.495 0.99 0.495 2 1 C2.02312312 11.80458085 2.04091493 22.60915586 2.05181217 33.41375637 C2.05704107 38.4302247 2.06413883 43.44667615 2.07543945 48.46313477 C2.0862681 53.30009694 2.09227679 58.13704284 2.09487724 62.97401619 C2.09673153 64.82368285 2.10035222 66.67334857 2.10573006 68.52300835 C2.1129402 71.10447014 2.11399095 73.68586382 2.11352539 76.26733398 C2.11712067 77.03985001 2.12071594 77.81236603 2.12442017 78.60829163 C2.11405216 83.88594784 2.11405216 83.88594784 1 85 C-1.83040672 85.09520906 -4.63634993 85.12553631 -7.46704102 85.11352539 C-8.35476196 85.11367142 -9.24248291 85.11381744 -10.15710449 85.1139679 C-13.10606284 85.11326843 -16.05495887 85.10547448 -19.00390625 85.09765625 C-21.04271917 85.09579219 -23.08153254 85.09436823 -25.12034607 85.09336853 C-30.49784574 85.08954241 -35.87531858 85.07971132 -41.25280762 85.06866455 C-47.69883418 85.05665834 -54.1448697 85.05204864 -60.59090424 85.04621124 C-70.39395484 85.03649962 -80.19694653 85.01734372 -90 85 C-90 68.83 -90 52.66 -90 36 C-85.50375 34.845 -81.0075 33.69 -76.375 32.5 C-63.27341605 29.04963438 -50.59604954 25.01004262 -38 20 C-37.15872559 19.67 -36.31745117 19.34 -35.45068359 19 C-22.91055516 14.0487405 -10.44337926 8.7092388 0 0 Z " fill="#000000" transform="translate(403,475)"/>
<path d="M0 0 C10.8719125 1.22686513 20.66279453 11.36236158 29 18 C29.95132813 18.75539063 30.90265625 19.51078125 31.8828125 20.2890625 C40.92975129 27.58331799 49.55151543 35.06181852 57 44 C58.485 44.99 58.485 44.99 60 46 C60 46.66 60 47.32 60 48 C58.94425781 48.49306641 58.94425781 48.49306641 57.8671875 48.99609375 C36.66391831 59.21020123 17.71950215 74.16719434 0.375 89.9375 C-0.14674805 90.4106665 -0.66849609 90.88383301 -1.20605469 91.37133789 C-3.97783018 93.88875793 -3.97783018 93.88875793 -6 97 C-6.66 97 -7.32 97 -8 97 C-8 97.66 -8 98.32 -8 99 C-8.99 99 -9.98 99 -11 99 C-12.07538776 93.73891346 -12.16124492 88.66020716 -12.16796875 83.31640625 C-12.17129715 82.38384506 -12.17462555 81.45128387 -12.17805481 80.49046326 C-12.18310578 78.51781708 -12.1854637 76.5451624 -12.18530273 74.57250977 C-12.18747005 71.60352829 -12.20559212 68.63493052 -12.22460938 65.66601562 C-12.25703559 54.91562725 -11.83767762 44.61615358 -10 34 C-9.84861572 33.07098877 -9.69723145 32.14197754 -9.54125977 31.18481445 C-9.12621583 28.73942676 -8.67139994 26.30762585 -8.1875 23.875 C-7.93746216 22.61659302 -7.93746216 22.61659302 -7.68237305 21.33276367 C-4.06290114 4.06290114 -4.06290114 4.06290114 0 0 Z " fill="#FAFAFA" transform="translate(104,96)"/>
<path d="M0 0 C7.7419537 20.03024616 10.69149633 43.60306713 11 65 C11.01901367 65.71720215 11.03802734 66.4344043 11.05761719 67.17333984 C11.33994604 77.95969036 10.62715825 88.33630217 9 99 C4.74358788 97.36923005 2.01724801 94.15454128 -1.0625 90.9375 C-6.71858983 85.16304537 -12.61217882 79.96435128 -19 75 C-20.54300781 73.76636719 -20.54300781 73.76636719 -22.1171875 72.5078125 C-29.40867647 66.72262931 -36.97690306 61.73718693 -45 57 C-46.38486316 56.1692153 -47.76894599 55.33712879 -49.15234375 54.50390625 C-52.76412415 52.32902103 -56.38079795 50.16251077 -60 48 C-55.65630587 41.82467815 -50.79023716 36.43901935 -45.4375 31.125 C-44.644646 30.33633545 -43.85179199 29.5476709 -43.03491211 28.73510742 C-13.74373673 0 -13.74373673 0 0 0 Z " fill="#FAFAFA" transform="translate(413,96)"/>
<path d="M0 0 C7.39756487 5.28958621 12.68493086 13.47133789 14.3125 22.4375 C15.20443407 30.6544426 14.14127279 37.12911923 10.3125 44.4375 C9.92320312 45.20964844 9.53390625 45.98179687 9.1328125 46.77734375 C4.83170514 54.22156802 -2.53909227 59.72136409 -10.6875 62.4375 C-22.0238544 63.4208269 -31.58332787 62.10831576 -41.0625 55.25 C-49.72146743 45.9725349 -52.22177204 36.33183092 -51.99609375 23.90625 C-51.21428567 15.11833133 -47.25056655 8.25192778 -40.6875 2.4375 C-27.66648469 -6.98284869 -13.9571227 -8.3647951 0 0 Z " fill="#010101" transform="translate(189.6875,249.5625)"/>
<path d="M0 0 C8.90813625 5.42433682 13.9187889 12.20955127 17.58984375 21.82421875 C19.52531896 31.8534994 17.95559051 40.72339028 12.9921875 49.71484375 C9.37263528 54.99797847 4.78979488 58.2437404 -0.72265625 61.38671875 C-1.75390625 62.00546875 -2.78515625 62.62421875 -3.84765625 63.26171875 C-10.92084752 66.02158544 -20.68278889 65.6394348 -27.66015625 62.82421875 C-36.84719684 57.91868576 -42.63964283 51.00151864 -45.97265625 41.19921875 C-48.91988142 30.89562599 -48.76324496 22.01224974 -43.72265625 12.38671875 C-34.23332492 -1.69422452 -15.6432446 -7.41817756 0 0 Z " fill="#000000" transform="translate(358.72265625,247.61328125)"/>
<path d="M0 0 C5.54869064 2.73147464 9.29825121 7.92853366 12.01953125 13.37109375 C12.61222592 17.89507968 13.03862452 22.40695897 10.890625 26.546875 C7.55041836 30.61965959 5.01525781 31.87323047 0.01953125 34.37109375 C-0.31046875 50.54109375 -0.64046875 66.71109375 -0.98046875 83.37109375 C-4.28046875 83.37109375 -7.58046875 83.37109375 -10.98046875 83.37109375 C-10.96886719 81.94321533 -10.95726562 80.51533691 -10.9453125 79.04418945 C-10.91275863 73.74166685 -10.93262635 68.44040629 -10.96826172 63.13793945 C-10.97636808 60.84400013 -10.97029443 58.54996478 -10.94970703 56.25610352 C-10.92255675 52.95591486 -10.94655422 49.65943174 -10.98046875 46.359375 C-10.96105225 45.33524002 -10.94163574 44.31110504 -10.92163086 43.25593567 C-10.91165546 37.91835147 -10.91165546 37.91835147 -13.74243164 33.6746521 C-15.84615506 32.32558363 -15.84615506 32.32558363 -18.02758789 31.34098816 C-21.44947025 29.64151707 -23.31170914 26.70861296 -24.98046875 23.37109375 C-25.83341105 16.92528696 -25.07912663 11.87412048 -21.5859375 6.35546875 C-16.01970746 -0.52444575 -8.47508584 -2.69129945 0 0 Z " fill="#020202" transform="translate(264.98046875,21.62890625)"/>
<path d="M0 0 C1.39979779 2.44854912 2.48201173 4.97577574 3.62109375 7.5546875 C5.10604245 10.18805261 6.56986452 11.27671922 9 13 C9 13.66 9 14.32 9 15 C9.7425 15.2475 10.485 15.495 11.25 15.75 C14.20124062 17.09147301 15.84814974 18.60905526 18 21 C17.43359375 23.2734375 17.43359375 23.2734375 16 26 C13.68715207 27.35847574 11.48033371 28.50184574 9.0625 29.625 C5.27605448 31.54440512 2.48231875 33.10172577 0.41015625 36.9609375 C-0.28864267 39.66574129 -0.78514086 42.21706262 -1 45 C-3.8125 45.6875 -3.8125 45.6875 -7 46 C-10.10335287 43.79184508 -10.57183094 41.45915518 -11.1875 37.8125 C-11.34605469 36.91144531 -11.50460938 36.01039062 -11.66796875 35.08203125 C-11.77753906 34.39496094 -11.88710937 33.70789063 -12 33 C-12.65226562 32.82984375 -13.30453125 32.6596875 -13.9765625 32.484375 C-19.31119331 31.00515584 -23.79059213 29.66974019 -28 26 C-28.875 23.25 -28.875 23.25 -29 21 C-25.61510114 17.91346609 -22.48818986 15.13073229 -18.3125 13.1875 C-14.75986673 10.84142143 -14.44920416 10.20836219 -13.0625 6.4375 C-11.51110717 2.34317195 -11.51110717 2.34317195 -9.0859375 0.71484375 C-5.46315474 -0.70133496 -3.7814086 -1.26046953 0 0 Z " fill="#030303" transform="translate(216,41)"/>
<path d="M0 0 C2.31 0 4.62 0 7 0 C7.5775 1.175625 8.155 2.35125 8.75 3.5625 C9.31074219 4.66078125 9.31074219 4.66078125 9.8828125 5.78125 C10.84202614 7.68626171 11.73984537 9.6219687 12.625 11.5625 C14.97532525 15.73979872 18.83213463 17.81138389 22.85546875 20.2265625 C25 22 25 22 25.88671875 24.5859375 C26 27 26 27 24.625 29 C15.4375 36 15.4375 36 11 36 C10.67 38.31 10.34 40.62 10 43 C9.34 43 8.68 43 8 43 C7.01 45.475 7.01 45.475 6 48 C4.35 48 2.7 48 1 48 C-1.90481064 41.39815763 -1.90481064 41.39815763 -2.7265625 37.9609375 C-4.40944452 34.04797869 -6.15369262 33.43275948 -10 31.75 C-15.87826087 29.12173913 -15.87826087 29.12173913 -18 27 C-18.4375 24.1875 -18.4375 24.1875 -18 21 C-15.89844557 18.28831686 -13.76066533 16.44800752 -10.8046875 14.70703125 C-4.31261484 10.8824934 -2.04333798 7.23027286 0 0 Z " fill="#020202" transform="translate(303,39)"/>
<path d="M0 0 C1.65 0 3.3 0 5 0 C5.61000081 1.3097987 6.21257432 2.62305609 6.8125 3.9375 C7.19019531 4.75347656 7.56789062 5.56945312 7.95703125 6.41015625 C9 9 9 9 9.51171875 11.49609375 C10.04322874 14.08561042 10.4767684 15.82589198 12 18 C15.0937171 19.28868721 17.98117056 19.92419155 21.28515625 20.46484375 C24 21 24 21 26 23 C26 26.4375 26 26.4375 25 30 C21.7798584 32.22343111 19.1552636 32.97105255 15.3125 33.6875 C12.01720673 34.61219361 12.01720673 34.61219361 10.99609375 36.62109375 C10.21190908 38.72730704 9.5877596 40.83097748 9 43 C6.63215467 50.56652251 6.63215467 50.56652251 3.8125 52.5 C2.9153125 52.7475 2.9153125 52.7475 2 53 C-0.9427604 49.67411013 -1.56450268 46.80086817 -2.4375 42.5 C-3.83439467 37.46074859 -3.83439467 37.46074859 -7.8203125 34.3671875 C-11.02411378 33.33371876 -11.02411378 33.33371876 -14.22265625 32.7109375 C-17.14080475 31.96395715 -18.3093296 31.46826097 -20 29 C-19.875 25.4375 -19.875 25.4375 -19 22 C-15.71508627 19.81005752 -14.16904361 19.64722661 -10.3125 19.375 C-9.31863281 19.30023438 -8.32476562 19.22546875 -7.30078125 19.1484375 C-6.54152344 19.09945313 -5.78226563 19.05046875 -5 19 C-4.83564453 17.69675781 -4.83564453 17.69675781 -4.66796875 16.3671875 C-3.09314587 4.92091388 -3.09314587 4.92091388 0 0 Z " fill="#000000" transform="translate(126,326)"/>
<path d="M0 0 C1.65 0 3.3 0 5 0 C7.14710968 5.62338249 9.13236819 11.27789404 11 17 C12.35544922 17.07347656 12.35544922 17.07347656 13.73828125 17.1484375 C14.91777344 17.22320312 16.09726562 17.29796875 17.3125 17.375 C18.48425781 17.44460938 19.65601563 17.51421875 20.86328125 17.5859375 C24 18 24 18 27 20 C27.48250526 23.72218343 27.56676941 26.0467969 25.625 29.3125 C22.79433628 31.13221239 21.279457 31.29086951 18 31.6875 C14.22364501 32.26823594 14.22364501 32.26823594 11.6015625 34.83984375 C10.59471247 37.19587282 9.78909561 39.56308707 9 42 C5.53448276 49.73275862 5.53448276 49.73275862 3 51 C-1.11198654 48.5590548 -2.08887584 45.87243911 -3.625 41.4375 C-5.12563356 36.79082607 -5.12563356 36.79082607 -8 33 C-10.36195411 32.39397335 -10.36195411 32.39397335 -13 32 C-17.77777778 31.22222222 -17.77777778 31.22222222 -20 29 C-19.77971474 22.94215531 -19.77971474 22.94215531 -17.5 20.1875 C-15 19 -15 19 -12.9453125 18.98046875 C-9.98282725 18.84581033 -8.52041343 18.63674516 -6 17 C-3.02610712 11.78295053 -1.5713095 5.75530617 0 0 Z " fill="#030303" transform="translate(384,327)"/>
<path d="M0 0 C0.85570084 -0.00807175 1.71140167 -0.01614349 2.59303284 -0.02445984 C4.40453057 -0.03829878 6.21605436 -0.04902179 8.02758789 -0.05688477 C10.8020939 -0.07412979 13.57541815 -0.11801986 16.34960938 -0.16210938 C18.10806414 -0.17223345 19.86652904 -0.18075045 21.625 -0.1875 C22.87197914 -0.21376213 22.87197914 -0.21376213 24.14414978 -0.24055481 C29.88470417 -0.21886021 29.88470417 -0.21886021 32.37133789 2.08129883 C33.69242038 4.90944611 34.25111749 7.1074567 34.37890625 10.23828125 C32.77478777 13.76734192 31.63731263 15.06601033 28.37890625 17.23828125 C21.36146467 18.51788442 14.30622461 18.42179536 7.19140625 18.42578125 C6.02931641 18.43802734 4.86722656 18.45027344 3.66992188 18.46289062 C1.98866211 18.46579102 1.98866211 18.46579102 0.2734375 18.46875 C-1.24479614 18.47491333 -1.24479614 18.47491333 -2.79370117 18.48120117 C-6.47503131 18.16491385 -9.32006717 17.12112071 -12.37109375 15.05078125 C-14.38050761 12.13713116 -14.56075622 9.73785779 -14.62109375 6.23828125 C-10.61882217 -0.11014953 -7.02343396 0.06225719 0 0 Z " fill="#F9F9F9" transform="translate(248.62109375,333.76171875)"/>
<path d="M0 0 C8.80755221 5.17156873 16.35186224 11.27596156 24 18 C20.03369325 22.20598611 15.72181118 25.59095895 11.0625 29 C6.25210756 32.53929902 1.54846886 36.12775108 -3 40 C-4.8710329 38.1289671 -4.17428433 35.06026168 -4.1875 32.5625 C-4.1800527 26.48029104 -3.77722514 20.48353346 -3.125 14.4375 C-3.04660889 13.68863525 -2.96821777 12.93977051 -2.88745117 12.16821289 C-2.38553694 7.88678343 -1.52708868 4.06154258 0 0 Z " fill="#030303" transform="translate(113,120)"/>
<path d="M0 0 C0.51290789 4.06097547 1.00785283 8.12396056 1.5 12.1875 C1.64308594 13.31865234 1.78617187 14.44980469 1.93359375 15.61523438 C2.8709066 23.44849176 3.17635811 31.11369011 3 39 C1.10262501 37.57754302 -0.79365048 36.15371339 -2.6875 34.7265625 C-4.2192378 33.58293394 -5.76089557 32.45246366 -7.3125 31.3359375 C-8.034375 30.81257813 -8.75625 30.28921875 -9.5 29.75 C-10.50546875 29.03070313 -10.50546875 29.03070313 -11.53125 28.296875 C-12.0159375 27.86890625 -12.500625 27.4409375 -13 27 C-13 26.34 -13 25.68 -13 25 C-13.57234375 24.88785156 -14.1446875 24.77570313 -14.734375 24.66015625 C-17.24789112 23.92776966 -19.05930543 22.86145147 -21.25 21.4375 C-21.95640625 20.98246094 -22.6628125 20.52742188 -23.390625 20.05859375 C-23.92171875 19.70925781 -24.4528125 19.35992187 -25 19 C-22.62847455 14.17933553 -19.51047296 11.8662576 -15.1875 8.9375 C-14.28161133 8.30618164 -14.28161133 8.30618164 -13.35742188 7.66210938 C-11.58026012 6.42823496 -9.7909345 5.2137613 -8 4 C-7.43361816 3.60441895 -6.86723633 3.20883789 -6.28369141 2.80126953 C-2.22536296 0 -2.22536296 0 0 0 Z " fill="#010101" transform="translate(403,121)"/>
<path d="M0 0 C3.05632765 1.30279825 3.80417175 2.24113886 6 5 C7.35798283 9.26684377 7.51091536 12.69432742 5.875 16.875 C2.52625147 20.67024833 -0.34283558 22.18594348 -5.375 22.5625 C-9.83804247 22.38338124 -12.51000167 21.04899245 -15.66015625 17.90625 C-17.65035883 15.07470814 -18.39853608 12.71193574 -18.515625 9.2578125 C-17.64577795 5.44893677 -15.51430654 3.5586909 -12.45703125 1.26171875 C-8.24436717 -0.90154118 -4.57834307 -1.06242018 0 0 Z " fill="#F8F8F8" transform="translate(176,258)"/>
<path d="M0 0 C3.8026029 2.0050088 5.61790841 3.42686262 8 7 C8.33726976 10.64251339 8.25350261 13.30286782 7 16.75 C3.70509886 20.45676378 -0.20709161 21.82544323 -5.125 22.1328125 C-8.71778085 21.90145919 -10.97550071 21.01668037 -13.9375 19 C-16.63860381 15.07112172 -17.44854768 11.7528802 -17 7 C-13.09307127 0.19905 -7.38046971 -1.06166202 0 0 Z " fill="#F9F9F9" transform="translate(348,259)"/>
<path d="M0 0 C2.89282587 1.54284046 4.5579181 2.70087588 5.63671875 5.87109375 C6.25898258 9.41063747 6.20070996 11.51407061 4.8125 14.875 C2.07220262 18.08776244 0.21336498 18.81928607 -3.9375 19.4375 C-8.0407637 18.85131947 -9.3956523 17.12521724 -12 14 C-13.42662219 11.14675563 -13.31033868 9.16545451 -13 6 C-9.52964181 0.61496143 -6.33212422 -0.63321242 0 0 Z " fill="#F0F0F0" transform="translate(281,193)"/>
<path d="M0 0 C2.5 1.375 2.5 1.375 4 4 C4.7271304 8.55971357 4.79078907 12.49031178 2.625 16.625 C-1.5284762 18.80063039 -5.43219261 18.97407201 -10 18 C-12.71063933 16.24499626 -13.35811285 14.95539687 -15 12 C-15.72848321 8.03381363 -15.37638362 6.58404354 -13.1875 3.1875 C-9.46021404 -0.53978596 -5.05158188 -0.68099796 0 0 Z " fill="#EEEEEE" transform="translate(241,192)"/>
<path d="M0 0 C2.24025222 1.60018015 2.92908141 2.83156835 4 5.375 C4 8 4 8 1.8125 10.75 C-2.35338346 14.08270677 -2.35338346 14.08270677 -5 14 C-8.38859351 12.02988749 -9.74638756 10.71608218 -11.0625 7 C-11 4 -11 4 -9.1875 1.6875 C-5.67795971 -1.01985965 -4.2613967 -1.24723806 0 0 Z " fill="#F3F3F3" transform="translate(262,33)"/>
<path d="M0 0 C6.04942966 2.12547529 6.04942966 2.12547529 8 5 C8.53852618 8.61581862 8.42236225 10.34111489 6.4375 13.4375 C4 15 4 15 0.375 14.875 C-3 14 -3 14 -5 12 C-5.58098308 6.85414988 -5.58098308 6.85414988 -5 4 C-2.5 1.5 -2.5 1.5 0 0 Z " fill="#F3F3F3" transform="translate(305,54)"/>
<path d="M0 0 C2.4375 1.75 2.4375 1.75 4 4 C4 7.25563791 3.19274779 8.72872533 1.3125 11.375 C-1 13 -1 13 -4.0625 12.9375 C-8.48421053 11.52631579 -8.48421053 11.52631579 -10 9 C-10.4375 5.5 -10.4375 5.5 -10 2 C-7.01313249 -1.67614463 -4.31369172 -1.34802866 0 0 Z " fill="#F4F4F4" transform="translate(215,56)"/>
<path d="M0 0 C0.85998596 0.00424484 1.71997192 0.00848969 2.60601807 0.01286316 C5.3470417 0.02962759 8.08732439 0.0672753 10.828125 0.10546875 C12.68879145 0.1205185 14.54946945 0.1342064 16.41015625 0.14648438 C20.9664304 0.17952376 25.52215216 0.23129042 30.078125 0.29296875 C30.078125 0.62296875 30.078125 0.95296875 30.078125 1.29296875 C28.9636499 1.29184082 27.8491748 1.29071289 26.70092773 1.28955078 C22.5425399 1.29323828 18.38530232 1.33617805 14.22729492 1.390625 C12.43212318 1.40872703 10.63681275 1.41636405 8.84155273 1.41308594 C6.2513623 1.41021194 3.66401362 1.44569608 1.07421875 1.48828125 C0.27914413 1.47918732 -0.51593048 1.47009338 -1.33509827 1.46072388 C-6.91749432 1.60440357 -9.697832 3.13296155 -13.70689392 7.00875854 C-14.10783768 7.43254791 -14.50878143 7.85633728 -14.921875 8.29296875 C-12.2663478 0.10509321 -7.76027184 -0.1443468 0 0 Z " fill="#D3D3D3" transform="translate(248.921875,333.70703125)"/>
<path d="M0 0 C0 3 0 3 -1.46875 4.80932617 C-2.1390625 5.46392822 -2.809375 6.11853027 -3.5 6.79296875 C-4.221875 7.50517578 -4.94375 8.21738281 -5.6875 8.95117188 C-6.450625 9.68916016 -7.21375 10.42714844 -8 11.1875 C-9.1446875 12.31188477 -9.1446875 12.31188477 -10.3125 13.45898438 C-12.20180839 15.31286823 -14.09775206 17.15941069 -16 19 C-16.66 18.67 -17.32 18.34 -18 18 C-16.12973998 15.93302978 -14.25404816 13.87145703 -12.375 11.8125 C-11.59189453 10.9452832 -11.59189453 10.9452832 -10.79296875 10.06054688 C-7.41255947 6.36713674 -3.91565929 3.12194457 0 0 Z " fill="#E6E6E6" transform="translate(132,226)"/>
<path d="M0 0 C0.66 0.33 1.32 0.66 2 1 C-3.28 6.28 -8.56 11.56 -14 17 C-14.66 16.67 -15.32 16.34 -16 16 C-5.62642369 4.29384966 -5.62642369 4.29384966 0 0 Z " fill="#DEDEDE" transform="translate(306,225)"/>
<path d="M0 0 C0.66 0.33 1.32 0.66 2 1 C0.5459375 2.3303125 0.5459375 2.3303125 -0.9375 3.6875 C-3.60122242 6.32615209 -4.7731363 8.14331715 -5 12 C-5.33 12 -5.66 12 -6 12 C-6.35671933 8.16526716 -6.29771416 6.44657125 -4.125 3.1875 C-2 1 -2 1 0 0 Z " fill="#DFDFDF" transform="translate(337,260)"/>
<path d="M0 0 C0.99 0.33 1.98 0.66 3 1 C-0.465 3.97 -0.465 3.97 -4 7 C-2.92598892 4.08482708 -2.22189824 2.22189824 0 0 Z " fill="#E0E0E0" transform="translate(238,335)"/>
</svg>
